<svg width="1200" height="720" version="1.0" xmlns="http://www.w3.org/2000/svg"><defs><clipPath id="clipEmfPath1"><path d="m481.31 266.72h331.32v170.62h-331.32z"/></clipPath></defs><path d="m0 0v720h1200v-720z" fill="#f5f6c8" fill-rule="evenodd"/><path d="m203.58 126.92v423.94h825.8v-423.94z" fill="#f2f2df" fill-rule="evenodd"/><path d="m203.58 490.1h825.8m-825.8-60.363h825.8m-825.8-60.763h825.8m-825.8-60.363h825.8m-825.8-60.763h825.8m-825.8-60.363h825.8m-825.8-60.563h825.8" fill="none" stroke="#d9d9d9" stroke-linejoin="round" stroke-width="2.4985px"/><path d="m203.58 126.92h825.8v423.94h-825.8z" fill="none" stroke="#afabab" stroke-linejoin="round" stroke-width="2.4985px"/><path d="m207.47 487.7h33.18v63.162h-33.18zm41.575-5.9964h32.78v69.158h-32.78zm41.175-15.191h33.18v84.349h-33.18zm41.175 1.599h33.18v82.75h-33.18zm41.575 8.7947h32.78v73.955h-32.78zm41.175-9.994h33.18v83.949h-33.18zm41.175 3.198h33.18v80.751h-33.18zm41.575 11.993h32.78v68.758h-32.78zm41.175 2.7983h32.78v65.96h-32.78zm41.175 2.7983h33.18v63.162h-33.18zm41.175-9.994h33.18v73.156h-33.18zm41.575-2.3986h32.78v75.554h-32.78zm41.175 5.5966h33.18v69.958h-33.18zm41.175 8.7947h33.18v61.163h-33.18zm41.575 4.3973h32.78v56.766h-32.78zm41.175-4.7971h33.18v61.563h-33.18zm41.175-11.593h33.18v73.156h-33.18zm41.175-16.39h33.18v89.546h-33.18zm41.575-36.778h32.78v126.32h-32.78zm41.175 24.385h33.18v101.94h-33.18z" fill="#548235"/><path transform="matrix(2.5 0 0 2.5 -999.59 -539.87)" d="m482.83 411.03h13.272v25.265h-13.272zm16.63-2.3986h13.112v27.663h-13.112zm16.47-6.0763h13.272v33.74h-13.272zm16.47 0.63961h13.272v33.1h-13.272zm16.63 3.5179h13.112v29.582h-13.112zm16.47-3.9976h13.272v33.58h-13.272zm16.47 1.2792h13.272v32.3h-13.272zm16.63 4.7971h13.112v27.503h-13.112zm16.47 1.1193h13.112v26.384h-13.112zm16.47 1.1193h13.272v25.265h-13.272zm16.47-3.9976h13.272v29.262h-13.272zm16.63-0.95942h13.112v30.222h-13.112zm16.47 2.2386h13.272v27.983h-13.272zm16.47 3.5179h13.272v24.465h-13.272zm16.63 1.7589h13.112v22.706h-13.112zm16.47-1.9188h13.272v24.625h-13.272zm16.47-4.6372h13.272v29.262h-13.272zm16.47-6.556h13.272v35.818h-13.272zm16.63-14.711h13.112v50.529h-13.112zm16.47 9.7541h13.272v40.775h-13.272z" clip-path="url(#clipEmfPath1)" fill="none" stroke="#548235" stroke-linejoin="round" stroke-width=".99939px"/><path d="m207.47 399.36h33.18v88.346h-33.18zm41.575-26.384h32.78v108.73h-32.78zm41.175-38.776h33.18v132.32h-33.18zm41.175 11.193h33.18v122.73h-33.18zm41.575 19.188h32.78v112.33h-32.78zm41.175 5.9964h33.18v96.342h-33.18zm41.175 12.392h33.18v87.147h-33.18zm41.575 21.987h32.78v77.153h-32.78zm41.175 15.191h32.78v64.761h-32.78zm41.175 12.792h33.18v54.767h-33.18zm41.175-15.591h33.18v60.363h-33.18zm41.575 3.198h32.78v54.767h-32.78zm41.175 3.1981h33.18v57.165h-33.18zm41.175 7.1956h33.18v58.764h-33.18zm41.575 7.1956h32.78v55.966h-32.78zm41.175-22.386h33.18v73.555h-33.18zm41.175-47.971h33.18v109.93h-33.18zm41.175-72.756h33.18v166.3h-33.18zm41.575-153.91h32.78v283.43h-32.78zm41.175 50.769h33.18v257.04h-33.18z" fill="#8faadc"/><g fill="none" stroke-linejoin="round"><path d="m207.47 399.36h33.18v88.346h-33.18zm41.575-26.384h32.78v108.73h-32.78zm41.175-38.776h33.18v132.32h-33.18zm41.175 11.193h33.18v122.73h-33.18zm41.575 19.188h32.78v112.33h-32.78zm41.175 5.9964h33.18v96.342h-33.18zm41.175 12.392h33.18v87.147h-33.18zm41.575 21.987h32.78v77.153h-32.78zm41.175 15.191h32.78v64.761h-32.78zm41.175 12.792h33.18v54.767h-33.18zm41.175-15.591h33.18v60.363h-33.18zm41.575 3.198h32.78v54.767h-32.78zm41.175 3.1981h33.18v57.165h-33.18zm41.175 7.1956h33.18v58.764h-33.18zm41.575 7.1956h32.78v55.966h-32.78zm41.175-22.386h33.18v73.555h-33.18zm41.175-47.971h33.18v109.93h-33.18zm41.175-72.756h33.18v166.3h-33.18zm41.575-153.91h32.78v283.43h-32.78zm41.175 50.769h33.18v257.04h-33.18z" stroke="#8faadc" stroke-width="2.4985px"/><path d="m203.58 550.87h825.8" stroke="#d9d9d9" stroke-width="2.4985px"/><path d="m224.26 378.57 41.175-16.79 41.175 0.7995 41.575 7.9952 41.175-3.1981 41.175 40.775 41.575 9.9939 41.175-5.5966 41.175 19.588 41.175 18.789 41.575 7.9952 41.175 19.088 41.175-18.289 41.575-24.785 41.175-2.7983 41.175-30.382 41.175-33.979 41.575-28.783 41.175-25.185 41.375-14.791" stroke="#000" stroke-linecap="round" stroke-width="3.298px"/></g><g fill="#000000" font-family="Arial" letter-spacing="0px" stroke-width="2.5" word-spacing="0px"><g font-size="30px" font-weight="400"><text x="1055.3629" y="560.57019" style="line-height:125%" xml:space="preserve"><tspan x="1055.3629" y="560.57019" stroke-width="2.5"><tspan dx="0" dy="0" fill="#595959" font-family="Arial" font-size="30px" font-weight="400" stroke-width="2.5">30%</tspan></tspan></text><text x="1055.3629" y="500.01083" style="line-height:125%" xml:space="preserve"><tspan x="1055.3629" y="500.01083" stroke-width="2.5"><tspan dx="0" dy="0" fill="#595959" font-family="Arial" font-size="30px" font-weight="400" stroke-width="2.5">40%</tspan></tspan></text><text x="1055.3629" y="439.45151" style="line-height:125%" xml:space="preserve"><tspan x="1055.3629" y="439.45151" stroke-width="2.5"><tspan dx="0" dy="0" fill="#595959" font-family="Arial" font-size="30px" font-weight="400" stroke-width="2.5">50%</tspan></tspan></text><text x="1055.3629" y="378.89218" style="line-height:125%" xml:space="preserve"><tspan x="1055.3629" y="378.89218" stroke-width="2.5"><tspan dx="0" dy="0" fill="#595959" font-family="Arial" font-size="30px" font-weight="400" stroke-width="2.5">60%</tspan></tspan></text><text x="1055.3629" y="318.33273" style="line-height:125%" xml:space="preserve"><tspan x="1055.3629" y="318.33273" stroke-width="2.5"><tspan dx="0" dy="0" fill="#595959" font-family="Arial" font-size="30px" font-weight="400" stroke-width="2.5">70%</tspan></tspan></text><text x="1055.3629" y="257.77341" style="line-height:125%" xml:space="preserve"><tspan x="1055.3629" y="257.77341" stroke-width="2.5"><tspan dx="0" dy="0" fill="#595959" font-family="Arial" font-size="30px" font-weight="400" stroke-width="2.5">80%</tspan></tspan></text><text x="1055.3629" y="197.21408" style="line-height:125%" xml:space="preserve"><tspan x="1055.3629" y="197.21408" stroke-width="2.5"><tspan dx="0" dy="0" fill="#595959" font-family="Arial" font-size="30px" font-weight="400" stroke-width="2.5">90%</tspan></tspan></text><text x="1055.3629" y="136.65469" style="line-height:125%" xml:space="preserve"><tspan x="1055.3629" y="136.65469" stroke-width="2.5"><tspan dx="0" dy="0" fill="#595959" font-family="Arial" font-size="30px" font-weight="400" stroke-width="2.5">100%</tspan></tspan></text><text x="161.28281" y="560.57019" style="line-height:125%" xml:space="preserve"><tspan x="161.28281" y="560.57019" stroke-width="2.5"><tspan dx="0" dy="0" fill="#595959" font-family="Arial" font-size="30px" font-weight="400" stroke-width="2.5">0</tspan></tspan></text><text x="86.261086" y="500.01083" style="line-height:125%" xml:space="preserve"><tspan x="86.261086" y="500.01083" stroke-width="2.5"><tspan dx="0" dy="0" fill="#595959" font-family="Arial" font-size="30px" font-weight="400" stroke-width="2.5">10,000</tspan></tspan></text><text x="86.261086" y="439.45151" style="line-height:125%" xml:space="preserve"><tspan x="86.261086" y="439.45151" stroke-width="2.5"><tspan dx="0" dy="0" fill="#595959" font-family="Arial" font-size="30px" font-weight="400" stroke-width="2.5">20,000</tspan></tspan></text><text x="86.261086" y="378.89218" style="line-height:125%" xml:space="preserve"><tspan x="86.261086" y="378.89218" stroke-width="2.5"><tspan dx="0" dy="0" fill="#595959" font-family="Arial" font-size="30px" font-weight="400" stroke-width="2.5">30,000</tspan></tspan></text><text x="86.261086" y="318.33273" style="line-height:125%" xml:space="preserve"><tspan x="86.261086" y="318.33273" stroke-width="2.5"><tspan dx="0" dy="0" fill="#595959" font-family="Arial" font-size="30px" font-weight="400" stroke-width="2.5">40,000</tspan></tspan></text><text x="86.261086" y="257.77341" style="line-height:125%" xml:space="preserve"><tspan x="86.261086" y="257.77341" stroke-width="2.5"><tspan dx="0" dy="0" fill="#595959" font-family="Arial" font-size="30px" font-weight="400" stroke-width="2.5">50,000</tspan></tspan></text><text x="86.261086" y="197.21408" style="line-height:125%" xml:space="preserve"><tspan x="86.261086" y="197.21408" stroke-width="2.5"><tspan dx="0" dy="0" fill="#595959" font-family="Arial" font-size="30px" font-weight="400" stroke-width="2.5">60,000</tspan></tspan></text><text x="86.261086" y="136.65469" style="line-height:125%" xml:space="preserve"><tspan x="86.261086" y="136.65469" stroke-width="2.5"><tspan dx="0" dy="0" fill="#595959" font-family="Arial" font-size="30px" font-weight="400" stroke-width="2.5">70,000</tspan></tspan></text><text transform="rotate(-90)" x="-635.78754" y="234.83023" style="line-height:125%" xml:space="preserve"><tspan x="-635.78754" y="234.83023" stroke-width="2.5"><tspan dx="0" dy="0" fill="#595959" font-family="Arial" font-size="30px" font-weight="400" stroke-width="2.5">2001</tspan></tspan></text><text transform="rotate(-90)" x="-635.78754" y="276.12198" style="line-height:125%" xml:space="preserve"><tspan x="-635.78754" y="276.12198" stroke-width="2.5"><tspan dx="0" dy="0" fill="#595959" font-family="Arial" font-size="30px" font-weight="400" stroke-width="2.5">2002</tspan></tspan></text><text transform="rotate(-90)" x="-635.78754" y="317.41409" style="line-height:125%" xml:space="preserve"><tspan x="-635.78754" y="317.41409" stroke-width="2.5"><tspan dx="0" dy="0" fill="#595959" font-family="Arial" font-size="30px" font-weight="400" stroke-width="2.5">2003</tspan></tspan></text><text transform="rotate(-90)" x="-635.78754" y="358.70584" style="line-height:125%" xml:space="preserve"><tspan x="-635.78754" y="358.70584" stroke-width="2.5"><tspan dx="0" dy="0" fill="#595959" font-family="Arial" font-size="30px" font-weight="400" stroke-width="2.5">2004</tspan></tspan></text><text transform="rotate(-90)" x="-635.78754" y="399.99789" style="line-height:125%" xml:space="preserve"><tspan x="-635.78754" y="399.99789" stroke-width="2.5"><tspan dx="0" dy="0" fill="#595959" font-family="Arial" font-size="30px" font-weight="400" stroke-width="2.5">2005</tspan></tspan></text><text transform="rotate(-90)" x="-635.78754" y="441.28964" style="line-height:125%" xml:space="preserve"><tspan x="-635.78754" y="441.28964" stroke-width="2.5"><tspan dx="0" dy="0" fill="#595959" font-family="Arial" font-size="30px" font-weight="400" stroke-width="2.5">2006</tspan></tspan></text><text transform="rotate(-90)" x="-635.78754" y="482.5817" style="line-height:125%" xml:space="preserve"><tspan x="-635.78754" y="482.5817" stroke-width="2.5"><tspan dx="0" dy="0" fill="#595959" font-family="Arial" font-size="30px" font-weight="400" stroke-width="2.5">2007</tspan></tspan></text><text transform="rotate(-90)" x="-635.78754" y="523.87341" style="line-height:125%" xml:space="preserve"><tspan x="-635.78754" y="523.87341" stroke-width="2.5"><tspan dx="0" dy="0" fill="#595959" font-family="Arial" font-size="30px" font-weight="400" stroke-width="2.5">2008</tspan></tspan></text><text transform="rotate(-90)" x="-635.78754" y="565.16553" style="line-height:125%" xml:space="preserve"><tspan x="-635.78754" y="565.16553" stroke-width="2.5"><tspan dx="0" dy="0" fill="#595959" font-family="Arial" font-size="30px" font-weight="400" stroke-width="2.5">2009</tspan></tspan></text><text transform="rotate(-90)" x="-635.78754" y="606.45734" style="line-height:125%" xml:space="preserve"><tspan x="-635.78754" y="606.45734" stroke-width="2.5"><tspan dx="0" dy="0" fill="#595959" font-family="Arial" font-size="30px" font-weight="400" stroke-width="2.5">2010</tspan></tspan></text><text transform="rotate(-90)" x="-635.78754" y="647.74927" style="line-height:125%" xml:space="preserve"><tspan x="-635.78754" y="647.74927" stroke-width="2.5"><tspan dx="0" dy="0" fill="#595959" font-family="Arial" font-size="30px" font-weight="400" stroke-width="2.5">2011</tspan></tspan></text><text transform="rotate(-90)" x="-635.78754" y="689.04102" style="line-height:125%" xml:space="preserve"><tspan x="-635.78754" y="689.04102" stroke-width="2.5"><tspan dx="0" dy="0" fill="#595959" font-family="Arial" font-size="30px" font-weight="400" stroke-width="2.5">2012</tspan></tspan></text><text transform="rotate(-90)" x="-635.78754" y="730.33313" style="line-height:125%" xml:space="preserve"><tspan x="-635.78754" y="730.33313" stroke-width="2.5"><tspan dx="0" dy="0" fill="#595959" font-family="Arial" font-size="30px" font-weight="400" stroke-width="2.5">2013</tspan></tspan></text><text transform="rotate(-90)" x="-635.78754" y="771.625" style="line-height:125%" xml:space="preserve"><tspan x="-635.78754" y="771.625" stroke-width="2.5"><tspan dx="0" dy="0" fill="#595959" font-family="Arial" font-size="30px" font-weight="400" stroke-width="2.5">2014</tspan></tspan></text><text transform="rotate(-90)" x="-635.78754" y="812.91699" style="line-height:125%" xml:space="preserve"><tspan x="-635.78754" y="812.91699" stroke-width="2.5"><tspan dx="0" dy="0" fill="#595959" font-family="Arial" font-size="30px" font-weight="400" stroke-width="2.5">2015</tspan></tspan></text><text transform="rotate(-90)" x="-635.78754" y="854.20862" style="line-height:125%" xml:space="preserve"><tspan x="-635.78754" y="854.20862" stroke-width="2.5"><tspan dx="0" dy="0" fill="#595959" font-family="Arial" font-size="30px" font-weight="400" stroke-width="2.5">2016</tspan></tspan></text><text transform="rotate(-90)" x="-635.78754" y="895.50073" style="line-height:125%" xml:space="preserve"><tspan x="-635.78754" y="895.50073" stroke-width="2.5"><tspan dx="0" dy="0" fill="#595959" font-family="Arial" font-size="30px" font-weight="400" stroke-width="2.5">2017</tspan></tspan></text><text transform="rotate(-90)" x="-635.78754" y="936.79236" style="line-height:125%" xml:space="preserve"><tspan x="-635.78754" y="936.79236" stroke-width="2.5"><tspan dx="0" dy="0" fill="#595959" font-family="Arial" font-size="30px" font-weight="400" stroke-width="2.5">2018</tspan></tspan></text><text transform="rotate(-90)" x="-635.78754" y="978.08459" style="line-height:125%" xml:space="preserve"><tspan x="-635.78754" y="978.08459" stroke-width="2.5"><tspan dx="0" dy="0" fill="#595959" font-family="Arial" font-size="30px" font-weight="400" stroke-width="2.5">2019</tspan></tspan></text><text transform="rotate(-90)" x="-635.78754" y="1019.3763" style="line-height:125%" xml:space="preserve"><tspan x="-635.78754" y="1019.3763" stroke-width="2.5"><tspan dx="0" dy="0" fill="#595959" font-family="Arial" font-size="30px" font-weight="400" stroke-width="2.5">2020</tspan></tspan></text></g><g font-size="33.125px" font-weight="400"><text transform="rotate(-90)" x="-453.37796" y="1173.2087" style="line-height:125%" xml:space="preserve"><tspan x="-453.37796" y="1173.2087" stroke-width="2.5"><tspan dx="0" dy="0" fill="#595959" font-family="Arial" font-size="33.125px" font-weight="400" stroke-width="2.5">Percent Denied</tspan></tspan></text><text transform="rotate(-90)" x="-470.16782" y="42.487648" style="line-height:125%" xml:space="preserve"><tspan x="-470.16782" y="42.487648" stroke-width="2.5"><tspan dx="0" dy="0" fill="#595959" font-family="Arial" font-size="33.125px" font-weight="400" stroke-width="2.5">Asylum Decisions</tspan></tspan></text><text x="533.50995" y="696.95026" style="line-height:125%" xml:space="preserve"><tspan x="533.50995" y="696.95026" stroke-width="2.5"><tspan dx="0" dy="0" fill="#595959" font-family="Arial" font-size="33.125px" font-weight="400" stroke-width="2.5">Fiscal Year</tspan></tspan></text></g><text x="190.89236" y="52.101753" font-size="46.719px" font-weight="700" style="line-height:125%" xml:space="preserve"><tspan x="190.89236" y="52.101753" stroke-width="2.5"><tspan dx="0" dy="0" fill="#595959" font-family="Arial" font-size="46.719px" font-weight="700" stroke-width="2.5">Immigration Court Asylum Decisions</tspan></tspan></text></g><path d="m406.65 174.79v15.94h63.961v-15.94z" fill="#8faadc" fill-rule="evenodd"/><path d="m406.65 174.79h63.961v15.94h-63.961z" fill="none" stroke="#8faadc" stroke-linejoin="round" stroke-width="2.4985px"/><text x="477.55984" y="193.11917" fill="#000000" font-family="Arial" font-size="31.562px" font-style="italic" font-weight="700" letter-spacing="0px" stroke-width="2.5" word-spacing="0px" style="line-height:125%" xml:space="preserve"><tspan x="477.55984" y="193.11917" stroke-width="2.5"><tspan dx="0" dy="0" fill="#595959" font-family="Arial" font-size="31.562px" font-style="italic" font-weight="700" stroke-width="2.5">Asylum Denied</tspan></tspan></text><path d="m406.65 231.01v15.94h63.961v-15.94z" fill="#548235" fill-rule="evenodd"/><path d="m406.65 231.01h63.961v15.94h-63.961z" fill="none" stroke="#548235" stroke-linejoin="round" stroke-width="2.4985px"/><text x="477.55984" y="249.33521" fill="#000000" font-family="Arial" font-size="31.562px" font-style="italic" font-weight="700" letter-spacing="0px" stroke-width="2.5" word-spacing="0px" style="line-height:125%" xml:space="preserve"><tspan x="477.55984" y="249.33521" stroke-width="2.5"><tspan dx="0" dy="0" fill="#595959" font-family="Arial" font-size="31.562px" font-style="italic" font-weight="700" stroke-width="2.5">Asylum/Other Granted</tspan></tspan></text><path d="m406.65 295.22h63.961" fill="none" stroke="#000" stroke-linecap="round" stroke-linejoin="round" stroke-width="3.348px"/><g fill="#000000" font-weight="700" letter-spacing="0px" stroke-width="2.5" word-spacing="0px"><text x="477.55984" y="305.5513" font-family="Arial" font-size="31.562px" font-style="italic" style="line-height:125%" xml:space="preserve"><tspan x="477.55984" y="305.5513" stroke-width="2.5"><tspan dx="0" dy="0" fill="#595959" font-family="Arial" font-size="31.562px" font-style="italic" font-weight="700" stroke-width="2.5">Percent Denied</tspan></tspan></text><text x="1043.5675" y="706.71167" font-family="Calibri" font-size="26.719px" style="line-height:125%" xml:space="preserve"><tspan x="1043.5675" y="706.71167" stroke-width="2.5"><tspan dx="0" dy="0" fill="#595959" font-family="Calibri" font-size="26.719px" font-weight="700" stroke-width="2.5">©</tspan></tspan></text><text x="1071.5507" y="706.71167" font-family="Calibri" font-size="26.719px" style="line-height:125%" xml:space="preserve"><tspan x="1071.5507" y="706.71167" stroke-width="2.5"><tspan dx="0" dy="0" fill="#595959" font-family="Calibri" font-size="26.719px" font-weight="700" stroke-width="2.5">2020 TRAC</tspan></tspan></text></g></svg>
